<svg xmlns="http://www.w3.org/2000/svg" width="960" height="560" viewBox="0 0 960 560"><rect width="100%" height="100%" fill="#fff"/><text x="40" y="38" font-family="Apple SD Gothic Neo, AppleGothic, Arial, sans-serif" font-size="22" font-weight="700" fill="#111827">서울 아파트 거래가 분포</text><line x1="70" y1="460" x2="900" y2="460" stroke="#111827"/><line x1="70" y1="80" x2="70" y2="460" stroke="#111827"/><rect x="70.00" y="459.50" width="19.75" height="0.50" fill="#2563eb" opacity="0.84"/><rect x="90.75" y="450.55" width="19.75" height="9.45" fill="#2563eb" opacity="0.84"/><rect x="111.50" y="382.53" width="19.75" height="77.47" fill="#2563eb" opacity="0.84"/><rect x="132.25" y="278.94" width="19.75" height="181.06" fill="#2563eb" opacity="0.84"/><rect x="153.00" y="183.20" width="19.75" height="276.80" fill="#2563eb" opacity="0.84"/><rect x="173.75" y="107.96" width="19.75" height="352.04" fill="#2563eb" opacity="0.84"/><rect x="194.50" y="80.00" width="19.75" height="380.00" fill="#2563eb" opacity="0.84"/><rect x="215.25" y="114.37" width="19.75" height="345.63" fill="#2563eb" opacity="0.84"/><rect x="236.00" y="162.92" width="19.75" height="297.08" fill="#2563eb" opacity="0.84"/><rect x="256.75" y="230.37" width="19.75" height="229.63" fill="#2563eb" opacity="0.84"/><rect x="277.50" y="267.10" width="19.75" height="192.90" fill="#2563eb" opacity="0.84"/><rect x="298.25" y="290.93" width="19.75" height="169.07" fill="#2563eb" opacity="0.84"/><rect x="319.00" y="358.60" width="19.75" height="101.40" fill="#2563eb" opacity="0.84"/><rect x="339.75" y="366.93" width="19.75" height="93.07" fill="#2563eb" opacity="0.84"/><rect x="360.50" y="382.33" width="19.75" height="77.67" fill="#2563eb" opacity="0.84"/><rect x="381.25" y="399.14" width="19.75" height="60.86" fill="#2563eb" opacity="0.84"/><rect x="402.00" y="405.42" width="19.75" height="54.58" fill="#2563eb" opacity="0.84"/><rect x="422.75" y="401.49" width="19.75" height="58.51" fill="#2563eb" opacity="0.84"/><rect x="443.50" y="429.43" width="19.75" height="30.57" fill="#2563eb" opacity="0.84"/><rect x="464.25" y="429.68" width="19.75" height="30.32" fill="#2563eb" opacity="0.84"/><rect x="485.00" y="436.49" width="19.75" height="23.51" fill="#2563eb" opacity="0.84"/><rect x="505.75" y="438.05" width="19.75" height="21.95" fill="#2563eb" opacity="0.84"/><rect x="526.50" y="442.96" width="19.75" height="17.04" fill="#2563eb" opacity="0.84"/><rect x="547.25" y="441.32" width="19.75" height="18.68" fill="#2563eb" opacity="0.84"/><rect x="568.00" y="446.25" width="19.75" height="13.75" fill="#2563eb" opacity="0.84"/><rect x="588.75" y="445.33" width="19.75" height="14.67" fill="#2563eb" opacity="0.84"/><rect x="609.50" y="449.48" width="19.75" height="10.52" fill="#2563eb" opacity="0.84"/><rect x="630.25" y="448.11" width="19.75" height="11.89" fill="#2563eb" opacity="0.84"/><rect x="651.00" y="451.63" width="19.75" height="8.37" fill="#2563eb" opacity="0.84"/><rect x="671.75" y="451.69" width="19.75" height="8.31" fill="#2563eb" opacity="0.84"/><rect x="692.50" y="453.61" width="19.75" height="6.39" fill="#2563eb" opacity="0.84"/><rect x="713.25" y="453.82" width="19.75" height="6.18" fill="#2563eb" opacity="0.84"/><rect x="734.00" y="455.57" width="19.75" height="4.43" fill="#2563eb" opacity="0.84"/><rect x="754.75" y="455.10" width="19.75" height="4.90" fill="#2563eb" opacity="0.84"/><rect x="775.50" y="456.34" width="19.75" height="3.66" fill="#2563eb" opacity="0.84"/><rect x="796.25" y="456.30" width="19.75" height="3.70" fill="#2563eb" opacity="0.84"/><rect x="817.00" y="457.38" width="19.75" height="2.62" fill="#2563eb" opacity="0.84"/><rect x="837.75" y="457.31" width="19.75" height="2.69" fill="#2563eb" opacity="0.84"/><rect x="858.50" y="458.03" width="19.75" height="1.97" fill="#2563eb" opacity="0.84"/><rect x="879.25" y="436.92" width="19.75" height="23.08" fill="#2563eb" opacity="0.84"/><text x="70" y="492" font-family="Apple SD Gothic Neo, AppleGothic, Arial, sans-serif" font-size="13" fill="#374151">0.0억</text><text x="810" y="492" font-family="Apple SD Gothic Neo, AppleGothic, Arial, sans-serif" font-size="13" fill="#374151">20.0억</text><text x="400.0" y="518" font-family="Apple SD Gothic Neo, AppleGothic, Arial, sans-serif" font-size="15" fill="#111827">거래가 (억 원, 20억 이상은 20억으로 제한)</text><text x="70" y="62" font-family="Apple SD Gothic Neo, AppleGothic, Arial, sans-serif" font-size="13" fill="#6b7280">거래 건수 742,285건 / 최대 구간 87,411건</text></svg>