<svg xmlns="http://www.w3.org/2000/svg" width="960" height="560" viewBox="0 0 960 560"><rect width="100%" height="100%" fill="#fff"/><text x="40" y="38" font-family="Apple SD Gothic Neo, AppleGothic, Arial, sans-serif" font-size="22" font-weight="700" fill="#111827">서울 아파트 평당 단가 분포</text><line x1="70" y1="460" x2="900" y2="460" stroke="#111827"/><line x1="70" y1="80" x2="70" y2="460" stroke="#111827"/><rect x="70.00" y="459.81" width="19.75" height="0.19" fill="#16a34a" opacity="0.84"/><rect x="90.75" y="459.58" width="19.75" height="0.42" fill="#16a34a" opacity="0.84"/><rect x="111.50" y="456.14" width="19.75" height="3.86" fill="#16a34a" opacity="0.84"/><rect x="132.25" y="414.01" width="19.75" height="45.99" fill="#16a34a" opacity="0.84"/><rect x="153.00" y="243.59" width="19.75" height="216.41" fill="#16a34a" opacity="0.84"/><rect x="173.75" y="80.00" width="19.75" height="380.00" fill="#16a34a" opacity="0.84"/><rect x="194.50" y="90.12" width="19.75" height="369.88" fill="#16a34a" opacity="0.84"/><rect x="215.25" y="196.52" width="19.75" height="263.48" fill="#16a34a" opacity="0.84"/><rect x="236.00" y="270.03" width="19.75" height="189.97" fill="#16a34a" opacity="0.84"/><rect x="256.75" y="326.60" width="19.75" height="133.40" fill="#16a34a" opacity="0.84"/><rect x="277.50" y="362.94" width="19.75" height="97.06" fill="#16a34a" opacity="0.84"/><rect x="298.25" y="385.33" width="19.75" height="74.67" fill="#16a34a" opacity="0.84"/><rect x="319.00" y="402.09" width="19.75" height="57.91" fill="#16a34a" opacity="0.84"/><rect x="339.75" y="410.35" width="19.75" height="49.65" fill="#16a34a" opacity="0.84"/><rect x="360.50" y="424.21" width="19.75" height="35.79" fill="#16a34a" opacity="0.84"/><rect x="381.25" y="431.15" width="19.75" height="28.85" fill="#16a34a" opacity="0.84"/><rect x="402.00" y="436.71" width="19.75" height="23.29" fill="#16a34a" opacity="0.84"/><rect x="422.75" y="442.67" width="19.75" height="17.33" fill="#16a34a" opacity="0.84"/><rect x="443.50" y="446.63" width="19.75" height="13.37" fill="#16a34a" opacity="0.84"/><rect x="464.25" y="448.99" width="19.75" height="11.01" fill="#16a34a" opacity="0.84"/><rect x="485.00" y="450.92" width="19.75" height="9.08" fill="#16a34a" opacity="0.84"/><rect x="505.75" y="452.67" width="19.75" height="7.33" fill="#16a34a" opacity="0.84"/><rect x="526.50" y="454.69" width="19.75" height="5.31" fill="#16a34a" opacity="0.84"/><rect x="547.25" y="455.23" width="19.75" height="4.77" fill="#16a34a" opacity="0.84"/><rect x="568.00" y="456.96" width="19.75" height="3.04" fill="#16a34a" opacity="0.84"/><rect x="588.75" y="457.50" width="19.75" height="2.50" fill="#16a34a" opacity="0.84"/><rect x="609.50" y="458.10" width="19.75" height="1.90" fill="#16a34a" opacity="0.84"/><rect x="630.25" y="458.60" width="19.75" height="1.40" fill="#16a34a" opacity="0.84"/><rect x="651.00" y="459.09" width="19.75" height="0.91" fill="#16a34a" opacity="0.84"/><rect x="671.75" y="459.15" width="19.75" height="0.85" fill="#16a34a" opacity="0.84"/><rect x="692.50" y="459.33" width="19.75" height="0.67" fill="#16a34a" opacity="0.84"/><rect x="713.25" y="459.52" width="19.75" height="0.48" fill="#16a34a" opacity="0.84"/><rect x="734.00" y="459.60" width="19.75" height="0.40" fill="#16a34a" opacity="0.84"/><rect x="754.75" y="459.65" width="19.75" height="0.35" fill="#16a34a" opacity="0.84"/><rect x="775.50" y="459.81" width="19.75" height="0.19" fill="#16a34a" opacity="0.84"/><rect x="796.25" y="459.84" width="19.75" height="0.16" fill="#16a34a" opacity="0.84"/><rect x="817.00" y="459.90" width="19.75" height="0.10" fill="#16a34a" opacity="0.84"/><rect x="837.75" y="459.95" width="19.75" height="0.05" fill="#16a34a" opacity="0.84"/><rect x="858.50" y="459.95" width="19.75" height="0.05" fill="#16a34a" opacity="0.84"/><rect x="879.25" y="459.89" width="19.75" height="0.11" fill="#16a34a" opacity="0.84"/><text x="70" y="492" font-family="Apple SD Gothic Neo, AppleGothic, Arial, sans-serif" font-size="13" fill="#374151">17만</text><text x="810" y="492" font-family="Apple SD Gothic Neo, AppleGothic, Arial, sans-serif" font-size="13" fill="#374151">10000만</text><text x="400.0" y="518" font-family="Apple SD Gothic Neo, AppleGothic, Arial, sans-serif" font-size="15" fill="#111827">평당 단가 (만 원/평, 1억 이상은 1억으로 제한)</text><text x="70" y="62" font-family="Apple SD Gothic Neo, AppleGothic, Arial, sans-serif" font-size="13" fill="#6b7280">거래 건수 742,285건 / 최대 구간 137,449건</text></svg>