<svg xmlns="http://www.w3.org/2000/svg" width="960" height="560" viewBox="0 0 960 560"><rect width="100%" height="100%" fill="#fff"/><text x="40" y="38" font-family="Apple SD Gothic Neo, AppleGothic, Arial, sans-serif" font-size="22" font-weight="700" fill="#111827">연도별 서울 아파트 평당 단가 중앙값</text><line x1="80" y1="460" x2="880" y2="460" stroke="#111827"/><line x1="80" y1="80" x2="80" y2="460" stroke="#111827"/><polyline points="80.0,460.0 168.9,330.3 257.8,361.3 346.7,396.5 435.6,423.7 524.4,425.2 613.3,393.5 702.2,342.5 791.1,228.4 880.0,80.0" fill="none" stroke="#7c3aed" stroke-width="3"/><circle cx="80.0" cy="460.0" r="4" fill="#7c3aed"/><circle cx="168.9" cy="330.3" r="4" fill="#7c3aed"/><circle cx="257.8" cy="361.3" r="4" fill="#7c3aed"/><circle cx="346.7" cy="396.5" r="4" fill="#7c3aed"/><circle cx="435.6" cy="423.7" r="4" fill="#7c3aed"/><circle cx="524.4" cy="425.2" r="4" fill="#7c3aed"/><circle cx="613.3" cy="393.5" r="4" fill="#7c3aed"/><circle cx="702.2" cy="342.5" r="4" fill="#7c3aed"/><circle cx="791.1" cy="228.4" r="4" fill="#7c3aed"/><circle cx="880.0" cy="80.0" r="4" fill="#7c3aed"/><text x="80" y="492" font-family="Apple SD Gothic Neo, AppleGothic, Arial, sans-serif" font-size="13" fill="#374151">2008</text><text x="840" y="492" font-family="Apple SD Gothic Neo, AppleGothic, Arial, sans-serif" font-size="13" fill="#374151">2017</text><text x="80" y="62" font-family="Apple SD Gothic Neo, AppleGothic, Arial, sans-serif" font-size="13" fill="#6b7280">평당 단가 중앙값(만 원/평): 1,556 ~ 2,191</text><text x="450.0" y="518" font-family="Apple SD Gothic Neo, AppleGothic, Arial, sans-serif" font-size="15" fill="#111827">거래 연도</text></svg>